<?xml version="1.0" encoding="UTF-8" standalone="no" ?>
<!DOCTYPE svg PUBLIC "-//W3C//DTD SVG 1.1//EN" "http://www.w3.org/Graphics/SVG/1.1/DTD/svg11.dtd">
<svg xmlns="http://www.w3.org/2000/svg" xmlns:xlink="http://www.w3.org/1999/xlink" version="1.1" width="200" height="90" viewBox="0 0 200 90" xml:space="preserve">
<desc>Created with Fabric.js 3.6.6</desc>
<defs>
</defs>
<g transform="matrix(1 0 0 1 100 48.5)"  >
<g style=""   >
		<g transform="matrix(1 0 0 1 2.73 -17.54)"  >
<path style="stroke: none; stroke-width: 1; stroke-dasharray: none; stroke-linecap: butt; stroke-dashoffset: 0; stroke-linejoin: miter; stroke-miterlimit: 4; fill: rgb(0,0,0); fill-rule: nonzero; opacity: 1;"  transform=" translate(-107.73, -35.96)" d="M 118.895 20.346 c 0 0 -13.743 16.922 -13.04 18.001 c 0.975 -1.079 -4.934 -18.186 -4.934 -18.186 s -1.233 -3.597 -5.102 -15.387 H 81.81 H 47.812 H 22.175 l -2.56 11.068 h 19.299 h 4.579 c 12.415 0 19.995 5.132 17.878 14.225 c -2.287 9.901 -13.123 14.128 -24.665 14.128 H 32.39 l 5.552 -24.208 H 18.647 l -8.192 35.368 h 27.398 c 20.612 0 40.166 -11.067 43.692 -25.288 c 0.617 -2.614 0.53 -9.185 -1.054 -13.053 c 0 -0.093 -0.091 -0.271 -0.178 -0.537 c -0.087 -0.093 -0.178 -0.722 0.178 -0.814 c 0.172 -0.092 0.525 0.271 0.525 0.358 c 0 0 0.179 0.456 0.351 0.813 l 17.44 50.315 l 44.404 -51.216 l 18.761 -0.092 h 4.579 c 12.424 0 20.09 5.132 17.969 14.225 c -2.29 9.901 -13.205 14.128 -24.75 14.128 h -4.405 L 161 19.987 h -19.287 l -8.198 35.368 h 27.398 c 20.611 0 40.343 -11.067 43.604 -25.288 c 3.347 -14.225 -11.101 -25.293 -31.89 -25.293 h -18.143 h -22.727 C 120.923 17.823 118.895 20.346 118.895 20.346 L 118.895 20.346 z" stroke-linecap="round" />
</g>
		<g transform="matrix(1 0 0 1 -5.53 27.51)"  >
<path style="stroke: none; stroke-width: 1; stroke-dasharray: none; stroke-linecap: butt; stroke-dashoffset: 0; stroke-linejoin: miter; stroke-miterlimit: 4; fill: rgb(0,0,0); fill-rule: nonzero; opacity: 1;"  transform=" translate(-99.47, -81.01)" d="M 99.424 67.329 C 47.281 67.329 5 73.449 5 81.012 c 0 7.558 42.281 13.678 94.424 13.678 c 52.239 0 94.524 -6.12 94.524 -13.678 C 193.949 73.449 151.664 67.329 99.424 67.329 z M 96.078 85.873 c -11.98 0 -21.58 -2.072 -21.58 -4.595 c 0 -2.523 9.599 -4.59 21.58 -4.59 c 11.888 0 21.498 2.066 21.498 4.59 C 117.576 83.801 107.966 85.873 96.078 85.873 z" stroke-linecap="round" />
</g>
</g>
</g>
</svg>